<svg data-v-423bf9ae="" xmlns="http://www.w3.org/2000/svg" viewBox="0 0 320.7335780238102 60" class="font"><!----><!----><!----><g data-v-423bf9ae="" id="f63f6e4d-76a3-4835-bc62-09885f714ef5" fill="#391B51" transform="matrix(5.791505450303629,0,0,5.791505450303629,-0.8108103033162593,-20.90733592568266)"><path d="M0.14 6.83L0.14 8.37L1.90 8.37L1.90 12.43C1.90 13.22 2.49 13.78 3.28 13.78L5.18 13.78L5.18 12.24L4.06 12.24C3.81 12.24 3.67 12.10 3.67 11.82L3.67 8.37L5.57 8.37L5.57 6.83L3.67 6.83L3.67 4.68L1.90 4.68L1.90 6.83ZM8.62 6.83L6.89 6.83L6.89 13.78L8.65 13.78L8.65 9.88C8.65 8.90 9.30 8.43 10.19 8.43L11.23 8.43L11.23 6.80L10.53 6.80C9.65 6.80 9.06 7.07 8.79 7.84L8.62 7.84ZM11.93 8.43L13.36 9.35C13.79 8.62 14.36 8.15 15.29 8.15C16.24 8.15 16.74 8.67 16.74 9.32L16.74 9.49L13.96 9.80C12.67 9.94 11.79 10.70 11.79 11.80C11.79 13.13 12.82 13.97 14.39 13.97C15.89 13.97 16.41 13.24 16.58 12.94L16.77 12.94L16.77 13.78L18.51 13.78L18.51 9.34C18.51 7.71 17.28 6.64 15.39 6.64C13.69 6.64 12.75 7.39 11.93 8.43ZM13.64 11.70C13.64 11.30 13.96 11.06 14.62 10.98L16.74 10.72L16.74 10.84C16.74 11.79 16.06 12.52 14.83 12.52C14.04 12.52 13.64 12.18 13.64 11.70ZM20.10 6.83L20.10 13.78L21.87 13.78L21.87 10.19C21.87 8.96 22.47 8.26 23.60 8.26C24.61 8.26 25.17 8.83 25.17 9.80L25.17 13.78L26.94 13.78L26.94 9.63C26.94 7.83 25.77 6.72 24.23 6.72C22.96 6.72 22.32 7.31 22.04 7.95L21.84 7.95L21.84 6.83ZM28.28 8.79C28.28 10.08 29.16 10.68 31.11 10.95L31.32 10.98C32.07 11.07 32.79 11.13 32.79 11.65C32.79 12.19 32.13 12.49 31.44 12.49C30.55 12.49 29.62 12.04 29.19 11.13L27.78 12.01C28.42 12.99 29.48 13.97 31.40 13.97C33.25 13.97 34.52 12.98 34.52 11.62C34.52 10.35 33.70 9.79 31.47 9.49L31.26 9.46C30.53 9.37 30.02 9.28 30.02 8.78C30.02 8.36 30.38 8.09 31.01 8.09C31.93 8.09 32.63 8.62 33.17 9.25L34.44 8.25C33.50 7.27 32.49 6.64 31.07 6.64C29.46 6.64 28.28 7.50 28.28 8.79ZM35.67 6.83L35.67 13.78L37.44 13.78L37.44 9.55C37.44 8.68 37.97 8.26 38.70 8.26C39.37 8.26 39.83 8.62 39.83 9.27L39.83 13.78L41.59 13.78L41.59 9.55C41.59 8.68 42.13 8.26 42.85 8.26C43.53 8.26 43.99 8.62 43.99 9.27L43.99 13.78L45.75 13.78L45.75 9.13C45.75 7.69 44.73 6.72 43.46 6.72C42.35 6.72 41.79 7.25 41.48 7.90L41.29 7.90C40.99 7.20 40.33 6.72 39.44 6.72C38.47 6.72 37.90 7.20 37.60 7.87L37.41 7.87L37.41 6.83ZM46.98 4.82C46.98 5.53 47.53 6.02 48.23 6.02C48.93 6.02 49.48 5.53 49.48 4.82C49.48 4.10 48.93 3.61 48.23 3.61C47.53 3.61 46.98 4.10 46.98 4.82ZM49.11 6.83L47.35 6.83L47.35 13.78L49.11 13.78ZM50.09 6.83L50.09 8.37L51.86 8.37L51.86 12.43C51.86 13.22 52.44 13.78 53.23 13.78L55.13 13.78L55.13 12.24L54.01 12.24C53.76 12.24 53.62 12.10 53.62 11.82L53.62 8.37L55.52 8.37L55.52 6.83L53.62 6.83L53.62 4.68L51.86 4.68L51.86 6.83Z"></path></g><!----><!----></svg>